<?xml version="1.0" encoding="UTF-8"?>
<svg xmlns="http://www.w3.org/2000/svg" xmlns:xlink="http://www.w3.org/1999/xlink" width="700px" height="700px" viewBox="0 0 700 700" version="1.1">
<g id="surface1">
<path style=" stroke:none;fill-rule:nonzero;fill:rgb(12.54902%,8.627451%,0%);fill-opacity:1;" d="M 690.617188 610.363281 C 681.253906 608.738281 672.902344 602.882812 672.226562 589.378906 C 670.625 567.277344 671.003906 544.96875 673.355469 523.007812 C 679.449219 476.96875 688.246094 431.582031 695.015625 385.707031 C 699.023438 366.476562 697.003906 345.675781 689.488281 328.769531 C 678.113281 300.445312 653.5 289.585938 633.078125 303.882812 C 605.015625 322.214844 579.714844 348.300781 558.613281 380.664062 C 530.066406 420.359375 502.199219 462.003906 474.671875 502.183594 C 469.921875 509.609375 464.628906 516.265625 458.875 522.03125 C 455.265625 525.449219 448.609375 528.375 446.125 525.933594 C 442.515625 521.160156 440.605469 514.277344 440.9375 507.226562 C 441.957031 494.515625 444.558594 482.171875 448.609375 470.789062 C 468.578125 421.984375 488.886719 373.179688 509.984375 326.167969 C 536.386719 266.300781 564.703125 207.902344 581.289062 140.390625 C 586.140625 121.300781 589.507812 101.496094 591.332031 81.339844 C 594.835938 50.585938 582.722656 20.566406 562.449219 9.761719 C 545.320312 -1.492188 525.914062 -3.230469 507.953125 4.878906 C 472.476562 20.878906 439.914062 48.050781 412.617188 84.429688 C 360.378906 147.710938 316.152344 222.867188 269.894531 294.769531 C 228.261719 359.84375 186.066406 422.960938 142.742188 484.941406 C 121.882812 515.457031 96.503906 538.761719 68.503906 553.101562 C 53.003906 562.878906 35.234375 561.675781 20.441406 549.847656 C 14.261719 546.617188 7.71875 545.070312 1.148438 545.292969 L 0.242188 546.757812 C 11.769531 589.734375 26.925781 630.492188 45.375 668.117188 C 46.480469 671.441406 48.246094 674.214844 50.449219 676.085938 C 51.488281 676.828125 52.589844 677.375 53.722656 677.714844 C 65.90625 681.292969 103.253906 706.507812 133.265625 698.046875 C 155.34375 691.242188 175.546875 675.234375 191.367188 652.011719 C 225.796875 600.445312 257.085938 544.714844 284.898438 485.429688 C 318.746094 417.105469 352.59375 348.453125 388.585938 281.59375 C 400.925781 261.796875 414.734375 244.011719 429.765625 228.5625 C 433.917969 224.136719 438.632812 220.929688 443.644531 219.125 C 452.636719 212.710938 463.484375 215.628906 470.269531 226.285156 C 476.746094 236.605469 477.535156 251.949219 472.1875 263.535156 C 454.476562 315.757812 435.859375 367.324219 418.597656 419.871094 C 401.335938 472.414062 383.847656 526.910156 367.714844 581.570312 C 363.183594 600.109375 361.007812 619.671875 361.28125 639.320312 C 360.402344 649.820312 363.703125 660.132812 369.8125 665.984375 C 375.921875 671.832031 383.796875 672.214844 390.164062 666.976562 C 403.101562 657.859375 415.101562 646.195312 425.816406 632.328125 C 456.957031 591.332031 486.628906 547.898438 518.109375 507.390625 C 530.703125 491.75 544.800781 478.816406 559.964844 469 C 576.550781 457.609375 585.351562 469 581.402344 494.863281 C 576.550781 526.421875 570.121094 557.496094 564.480469 589.054688 C 559.519531 614.824219 563.039062 642.449219 574.023438 664 C 585.007812 685.546875 602.242188 698.640625 620.777344 699.511719 C 633.546875 699.867188 646.320312 699.109375 659.027344 697.234375 C 674.550781 669.523438 688.191406 639.726562 699.757812 608.25 C 696.933594 610.292969 693.742188 611.03125 690.617188 610.363281 Z M 690.617188 610.363281 "/>
</g>
</svg>
