<?xml version="1.0" standalone="no"?>
<!DOCTYPE svg PUBLIC "-//W3C//DTD SVG 20010904//EN"
 "http://www.w3.org/TR/2001/REC-SVG-20010904/DTD/svg10.dtd">
<svg version="1.0" xmlns="http://www.w3.org/2000/svg"
 width="64.000000pt" height="64.000000pt" viewBox="0 0 64.000000 64.000000"
 preserveAspectRatio="xMidYMid meet">

<g transform="translate(0.000000,64.000000) scale(0.100000,-0.100000)"
fill="#000000" stroke="none">
<path d="M245 631 c-96 -26 -172 -88 -216 -176 -20 -41 -24 -65 -24 -136 0
-98 10 -119 58 -119 27 0 52 21 180 150 111 112 158 153 186 161 45 13 81 -1
81 -32 0 -23 -36 -97 -85 -174 -33 -50 -44 -85 -28 -85 3 0 37 29 74 65 37 36
74 65 82 65 23 0 49 -30 42 -49 -4 -9 -9 -42 -12 -75 -7 -74 13 -74 40 0 36
100 2 238 -78 319 -72 71 -209 111 -300 86z"/>
<path d="M348 363 c-14 -16 -50 -62 -81 -104 -77 -105 -121 -142 -163 -137
-19 2 -34 1 -34 -3 0 -15 86 -78 130 -96 70 -28 191 -24 255 9 28 14 63 38 79
53 l30 28 -35 11 c-34 11 -34 12 -32 69 2 74 -9 74 -87 2 -101 -93 -117 -68
-45 75 25 49 45 96 45 105 0 24 -34 17 -62 -12z"/>
</g>
</svg>
