<svg xmlns="http://www.w3.org/2000/svg" viewBox="0 0 841 160.5"><defs><style>.cls-1{fill:#fff;}</style></defs><title>Ресурс 21</title><g id="Слой_2" data-name="Слой 2"><g id="Слой_1-2" data-name="Слой 1"><g id="Слой_1-2-2" data-name="Слой 1-2"><path class="cls-1" d="M125.6,2.8l-67.4,84L45.8,157.5H25.2L37.8,86.3,0,2.8H21.4L50.1,67.6,101.4,2.8Z"/><path class="cls-1" d="M178.6,160.4q-33.3,0-53-24.5C112.5,119.6,108,100.2,112.1,78q5.7-33.6,32-55.8C161.6,7.4,182,0,205.1,0q33.3,0,53,24.9T272,83.4a90.57,90.57,0,0,1-32.1,55.4C222.5,153.1,202,160.4,178.6,160.4Zm2.9-20.1a69.19,69.19,0,0,0,45.9-16.8,69.91,69.91,0,0,0,24.2-42.4q4.35-25.65-9.7-43.4c-9.4-11.8-22.8-17.8-40-17.8a66.59,66.59,0,0,0-45.4,17.2,72.12,72.12,0,0,0-24,43.1c-2.9,17,.3,31.2,9.5,42.8S164.4,140.3,181.5,140.3Z"/><path class="cls-1" d="M410.5,78.5a13.52,13.52,0,0,0-4,.3,13.61,13.61,0,0,1,4-.4L423.7,2.9H403.4L385.5,104.8q-2.85,15.9-14.4,25.8c-7.7,6.6-17.6,9.8-29.8,9.8s-20.8-3.2-26-9.7-6.9-15.1-5-25.9l18-101.9H307.7L289.8,105.7c-2.8,16.2.6,29.4,10.1,39.6s23.1,15.2,40.8,15.2c16.8,0,31.1-4.8,42.9-14.5s19.2-23.1,22.3-40.3l4.6-26.5-.4.1.4-.1Z"/><path class="cls-1" d="M547.5,17.9C539.4,7.8,528.9,2.8,516,2.8H454.6l-5.1,29.1h20.6l1.7-9.9h40.9q11.7,0,18.6,8.4c4.6,5.6,6.1,12.4,4.6,20.3a34.23,34.23,0,0,1-11.5,20.4A31.13,31.13,0,0,1,503,79.6h-6.4c-2.2.1-4.4.1-6.7,0-5.9.1-13.9.1-22.5,0H441l-13.7,77.8h20.6l10.4-59.2h38.6l23.9,59.2H542L516.7,95.8A56.59,56.59,0,0,0,542.6,80,52.71,52.71,0,0,0,556,52.9C558.4,39.7,555.6,28,547.5,17.9Z"/><path class="cls-1" d="M634.5,160.4q-35.1,0-54-24.3T567.5,78a91.38,91.38,0,0,1,31.8-55.8Q625.4,0,658.5,0c15,0,28,3.4,38.8,10.2A62.25,62.25,0,0,1,721.5,38l-18.3,9.7q-13.05-27.9-45.7-27.9A67.53,67.53,0,0,0,611.6,37a72.12,72.12,0,0,0-24,43.1c-2.9,17.4.1,31.8,9.2,43.1s22.2,17,39.5,17a65,65,0,0,0,54.4-28.5l17,10.8a91.18,91.18,0,0,1-31.9,27.6A87.77,87.77,0,0,1,634.5,160.4Z"/><path class="cls-1" d="M751.9,2.8l-5,28.4c6.1,0,13.3-.1,20.7,0l1.6-9h68.3L841,2.8Z"/><path class="cls-1" d="M760.3,72.4H739.6l-15,85.2h20.5L756.6,92h65.6l3.5-19.4Z"/><path class="cls-1" d="M761.3,72.4h0Z"/></g></g></g></svg>